<?xml version="1.0" encoding="utf-8"?>
<!-- Generator: Adobe Illustrator 26.3.1, SVG Export Plug-In . SVG Version: 6.00 Build 0)  -->
<svg version="1.1" id="Camada_1" xmlns="http://www.w3.org/2000/svg" xmlns:xlink="http://www.w3.org/1999/xlink" x="0px" y="0px"
	 viewBox="0 0 75.3 75.3" style="enable-background:new 0 0 75.3 75.3;" xml:space="preserve">
<style type="text/css">
	.st0{fill:#FCF25A;}
</style>
<path id="icons8-instagram" class="st0" d="M20.9,0C9.4,0,0,9.4,0,20.9v33.5c0,11.5,9.4,20.9,20.9,20.9h33.5
	c11.5,0,20.9-9.4,20.9-20.9V20.9C75.3,9.4,65.9,0,54.4,0H20.9z M20.9,8.4h33.5c6.9,0,12.5,5.6,12.5,12.5v33.5
	c0,6.9-5.6,12.5-12.5,12.5H20.9c-6.9,0-12.5-5.6-12.5-12.5V20.9C8.4,14,14,8.4,20.9,8.4z M58.5,12.5c-2.3,0-4.2,1.9-4.2,4.2
	s1.9,4.2,4.2,4.2c2.3,0,4.2-1.9,4.2-4.2S60.8,12.5,58.5,12.5L58.5,12.5z M37.6,16.7c-11.5,0-20.9,9.4-20.9,20.9s9.4,20.9,20.9,20.9
	s20.9-9.4,20.9-20.9C58.5,26.1,49.2,16.7,37.6,16.7z M37.6,25.1c6.9,0,12.5,5.6,12.5,12.5s-5.6,12.5-12.5,12.5s-12.5-5.6-12.5-12.5
	l0,0C25.1,30.7,30.7,25.1,37.6,25.1z"/>
</svg>
