<?xml version="1.0" encoding="utf-8"?>
<!-- Generator: Adobe Illustrator 26.3.1, SVG Export Plug-In . SVG Version: 6.00 Build 0)  -->
<svg version="1.1" id="Camada_1" xmlns="http://www.w3.org/2000/svg" xmlns:xlink="http://www.w3.org/1999/xlink" x="0px" y="0px"
	 viewBox="0 0 83.6 83.6" style="enable-background:new 0 0 83.6 83.6;" xml:space="preserve">
<style type="text/css">
	.st0{fill:#FCF25A;}
</style>
<path id="icons8-whatsapp" class="st0" d="M41.9,0C18.8,0,0.1,18.7,0.1,41.8c0,7.3,1.9,14.5,5.6,20.9L0,83.6l21.9-5.2
	c6.1,3.3,13,5.1,20,5.1h0C64.9,83.7,83.7,65,83.8,42C83.9,18.9,65.3,0.1,42.3,0C42.1,0,42,0,41.9,0z M41.9,8.4
	c18.5,0,33.4,15,33.4,33.4c0,18.5-15,33.4-33.4,33.4c-5.6,0-11.1-1.4-16-4.1l-2.8-1.5L20,70.3l-8.2,1.9l2-7.5l0.9-3.3l-1.7-3
	C3.7,42.5,9.2,22,25.2,12.8C30.2,9.9,36,8.4,41.9,8.4L41.9,8.4z M27.1,22.5c-1.1,0-2.1,0.5-2.8,1.3c-2.4,2.3-3.7,5.4-3.7,8.7
	c0,5.1,3.7,10.1,4.3,10.8S32.1,54.8,42.7,59c8.8,3.5,10.6,2.8,12.5,2.6s6.2-2.5,7-5s0.9-4.5,0.6-5s-1-0.7-2-1.2s-6.2-3-7.1-3.4
	s-1.7-0.5-2.4,0.5s-2.7,3.4-3.3,4.1s-1.2,0.8-2.3,0.3c-3.1-1.2-5.9-3-8.4-5.2c-2.3-2.1-4.2-4.5-5.8-7.2c-0.6-1-0.1-1.6,0.5-2.1
	c0.5-0.5,1-1.2,1.6-1.8c0.4-0.5,0.8-1.1,1-1.7c0.3-0.6,0.2-1.3-0.1-1.8c-0.3-0.5-2.3-5.7-3.2-7.7c-0.8-1.7-1.6-1.8-2.4-1.8
	C28.5,22.5,27.8,22.5,27.1,22.5z"/>
</svg>
